<svg xmlns="http://www.w3.org/2000/svg" width="489" height="80" viewBox="0 0 489 80" fill="none"><path d="M84.5997 30.3856C84.1576 29.5933 83.804 28.6251 83.4503 27.7448C82.743 25.9843 82.0357 24.1358 80.7095 22.9034H80.6211C80.0906 22.9915 79.737 23.6957 79.2949 24.3999C79.0297 24.752 78.8528 25.1921 78.5876 25.3681C77.6151 26.6885 77.7919 27.0406 78.676 28.9772C81.7705 35.9311 82.8314 43.2372 81.5936 49.751C81.0632 52.2157 79.5601 57.1451 78.7644 58.5535C78.7644 58.5535 78.3224 58.6415 78.1455 58.6415C77.6151 58.2894 77.3498 57.4972 77.0846 56.705C76.9078 56.2649 76.8193 55.8247 76.5541 55.4726C74.8743 51.3355 73.9901 47.5504 73.9017 44.3815C73.9017 44.1174 73.9017 43.8534 73.9017 43.5893C73.9017 42.621 73.9017 41.7408 73.2828 41.4767C72.9292 41.3006 72.3987 41.3887 71.7798 41.7408C71.2493 41.9168 70.6304 42.2689 70.3652 43.0611C69.8347 44.6456 69.4811 46.3181 69.039 48.0785C68.0665 52.2157 67.0055 56.5289 64.3531 59.3457C64.0879 59.1697 63.9111 58.7296 63.7343 58.2894C63.5574 58.0254 63.469 57.7613 63.3806 57.4972C63.2038 56.881 63.027 56.1768 62.2312 56.1768C61.7008 56.1768 61.0819 56.1768 60.5514 56.1768C60.1093 56.1768 59.6673 56.0888 59.2252 56.1768H58.96L59.1368 56.793C60.1977 60.5781 61.6123 64.9793 63.2038 64.8033C64.8836 65.0673 66.9171 64.3631 67.7128 62.3386C69.039 60.226 70.2768 58.2014 71.0725 55.7367C71.2493 55.2966 71.3377 55.2966 71.3377 55.2966C71.5146 55.2966 71.8682 56.3529 72.0451 56.705C72.0451 56.881 72.1335 56.9691 72.1335 57.0571C72.7524 58.4655 73.4597 59.7859 74.167 61.1062C74.5206 61.7224 74.7859 62.3386 75.1395 62.8667C75.4932 63.5709 75.9352 64.3631 76.7309 64.6272C77.2614 64.8033 77.7919 64.8913 78.3224 64.8913C79.2949 64.8913 80.2674 64.5392 80.7095 63.5709C83.8924 57.2331 85.4838 52.2157 86.3679 44.9097C87.1636 40.5964 85.8374 35.1389 84.5113 30.8257" fill="#2e3826"></path><path d="M26.2476 60.1378C27.0433 57.0569 29.6957 54.1521 31.9944 52.9197C31.9944 53.8 31.8176 54.6802 31.6408 55.4725C31.2871 56.9689 30.9335 58.6414 31.8176 60.1378C32.3481 61.6342 32.967 64.539 32.0828 66.9157C31.906 67.1798 31.5524 67.2678 31.0219 67.1798C29.5189 67.0917 27.4854 65.5953 27.0433 64.8031C26.0708 63.4827 25.8055 61.8983 26.2476 60.0497M65.2376 24.2236C65.326 22.023 65.5029 19.8224 66.1218 17.7098C66.2986 17.3577 66.6522 17.3577 67.2711 17.3577C67.448 17.3577 67.6248 17.3577 67.8016 17.3577C68.0668 17.3577 68.5089 17.3577 68.951 17.1817C70.6308 16.9176 73.3716 16.4775 74.3441 17.4457C74.6094 17.7098 74.6978 18.1499 74.6094 18.6781C73.3716 22.6392 70.454 27.1285 66.2986 27.9207C65.8565 27.9207 65.5029 27.8327 65.2376 27.5686C65.0608 27.3925 64.9724 27.2165 65.0608 26.9524C65.0608 26.0722 65.2376 25.1919 65.2376 24.3117M42.9576 38.4837C43.3997 38.1316 43.7533 37.7795 43.8417 37.4274C44.4606 36.107 45.0795 32.8501 44.1954 31.2656C43.9302 30.7375 43.4881 30.4734 42.9576 30.3854C40.9241 30.0333 39.1559 30.7375 37.6529 32.498C36.9455 33.3782 34.7352 36.107 36.5919 38.2196C37.3876 39.0118 37.3876 39.4519 36.5919 40.2442C35.0889 41.3885 33.7627 43.4131 32.2597 45.6137C29.8725 49.1347 27.4854 52.7437 24.4794 52.7437C26.6013 51.2473 27.397 48.0784 26.6013 46.0538C25.9824 44.3813 24.3909 43.7652 22.269 44.2053C19.7051 44.9095 17.0527 47.0221 17.2295 49.7508C17.2295 50.1029 17.4063 50.455 17.4947 50.8071C17.6716 51.1592 17.76 51.5113 17.76 51.9515C15.3728 50.367 14.1351 47.2861 14.8424 44.2053C15.9917 37.2513 23.5952 32.8501 30.8451 29.5051C32.3481 28.889 34.0279 28.6249 35.6194 28.4488C36.6803 28.2728 37.8297 28.1848 38.8906 27.9207C40.3052 27.5686 41.8083 27.8327 43.2229 28.0087C44.107 28.0967 44.9027 28.2728 45.7868 28.2728C46.2289 28.3608 46.7594 28.5369 47.2014 28.6249C48.9697 29.065 50.7379 29.5932 52.5946 29.5051H52.683L52.9483 29.065C52.5946 27.8327 51.7105 27.6566 50.8264 27.3925C50.5611 27.3925 50.2959 27.2165 50.0306 27.1285C45.8752 25.7201 41.8967 25.0159 37.6529 24.3117C35.8846 24.0476 34.0279 23.6955 32.1713 23.3434C33.5859 21.7589 36.2382 17.9739 35.5309 15.8613C35.2657 15.0691 34.6468 14.6289 33.6743 14.4529C31.2871 14.1008 29.4305 14.717 28.1927 16.3894C27.9274 16.7415 27.6622 17.0936 27.3086 17.4457C25.9824 19.0302 24.3025 20.8787 25.7171 23.0793C25.7171 23.0793 25.8055 23.2554 25.8055 23.3434C25.7171 24.3117 23.0647 26.0722 21.2965 27.2165C20.2355 27.9207 19.4398 28.4488 19.0862 28.8009C13.4278 32.8501 10.4217 40.6843 11.4827 48.6065C11.3943 49.7508 12.0132 51.7754 12.8089 53.888C13.693 56.4407 14.6655 59.3456 14.0466 60.5779C13.9582 60.842 13.693 61.018 13.4278 61.106C8.29982 61.106 5.91267 49.7508 5.47061 47.4622C3.26029 33.1141 9.71442 17.2697 21.4733 9.25941C27.6622 5.21027 34.9121 3.1857 41.9851 3.1857C49.0581 3.1857 59.6676 6.26657 66.387 12.3403C63.823 12.3403 61.6127 12.6044 59.5792 13.0445C58.1646 13.3966 58.4299 14.717 58.6951 15.7733C58.6951 16.1254 58.8719 16.3894 58.8719 16.6535C58.8719 17.1817 58.9603 17.7978 59.756 17.9739C59.8445 17.9739 60.0213 18.326 60.1097 18.59C60.1097 20.4386 60.2865 22.2871 60.4633 24.0476C60.817 28.4488 61.0822 32.586 60.1097 37.6034C59.8445 39.1879 58.0762 39.1879 56.75 39.0998C56.3079 39.0998 55.8659 39.0998 55.6006 39.0998C54.7165 39.2759 53.8324 39.54 52.9483 39.716C49.5002 40.5963 45.8752 41.5645 42.5156 39.716C42.3387 39.628 42.2503 39.4519 42.2503 39.3639C42.2503 39.0998 42.6924 38.6597 43.1344 38.3076M65.5029 73.3415C65.5029 68.4121 62.2316 65.6833 59.0487 62.9546C56.9268 61.106 54.7165 59.2575 53.4787 56.7048C53.1251 55.9126 53.1251 55.2964 53.4787 54.8563C53.9208 54.3281 54.9818 54.0641 56.5732 54.2401C58.5183 54.2401 60.6402 54.3281 62.8505 54.8563C63.7346 54.6802 64.1767 53.8 64.6187 52.9197C64.7956 52.5676 64.9724 52.2155 65.1492 51.9515C65.1492 51.5113 65.1492 51.2473 64.9724 50.9832C64.4419 50.279 62.8505 50.1029 61.7895 50.1029C61.7895 50.1029 61.6127 50.1029 61.5243 50.1029C61.5243 49.8389 61.5243 49.4868 61.5243 49.1347C61.3475 47.4622 61.1706 45.4376 61.1706 43.6771C61.0822 42.3568 61.1707 41.3885 61.7011 40.8603C62.0548 40.5082 62.4968 40.3322 63.1157 40.3322C64.6188 40.3322 64.7956 40.1561 64.7956 38.5717V32.762H64.9724C66.9175 34.9627 69.1278 36.9872 71.3381 38.9238C72.3107 39.804 73.2832 40.5963 74.1673 41.4765C75.4935 42.7089 76.8197 41.6526 77.9691 40.8603C78.3227 40.5963 78.6764 40.3322 78.9416 40.1561C79.3837 39.804 79.9142 39.0998 79.8257 38.4837C79.8257 38.2196 79.6489 37.7795 79.03 37.5154C77.7923 37.1633 69.9235 32.9381 69.6583 30.9135C69.6583 30.6494 69.6583 30.3854 70.0119 30.2093C75.7588 27.3925 80.0026 21.1428 80.533 14.717C80.2678 13.3966 77.7923 13.0445 75.5819 12.7804C74.4326 12.6044 73.3716 12.5163 72.8411 12.2523C59.8445 -1.30357 37.9181 -3.94431 20.8544 6.00249C4.85172 15.6852 -3.63591 37.6914 1.49203 56.0006C2.90664 60.0497 4.67489 63.3947 6.61997 66.2115L6.70839 66.4756C7.94617 68.148 9.18394 69.5564 10.687 70.8768C11.3943 71.581 11.0406 72.1092 10.5985 72.7253C10.1565 73.3415 9.71442 73.9577 10.0681 74.8379C10.5101 76.1583 13.2509 78.0068 14.3119 78.0068C14.7539 78.0068 15.0192 77.8308 15.196 77.6547C15.3728 77.3906 15.3728 77.0385 15.196 76.5104C14.8424 75.19 14.9308 74.2218 15.196 73.7816C15.3728 73.6056 15.5497 73.6056 15.9033 73.6056C18.9978 74.3978 19.1746 74.5738 19.0862 78.0948C19.0862 78.3589 19.4398 79.0631 19.7935 79.0631C20.9428 79.0631 22.0922 79.0631 23.33 79.0631H23.9489C24.2141 78.9751 24.3909 78.799 24.4794 78.535C24.6562 78.0068 24.0373 77.3026 23.6836 76.7745C23.6836 76.6864 23.5068 76.5984 23.5068 76.5104C23.2416 76.0703 23.2416 75.3661 23.4184 75.014C23.4184 74.8379 23.5952 74.6619 23.8605 74.6619C26.0708 74.4858 28.1043 73.8697 30.0494 72.8133C30.3146 72.6373 30.6682 72.7253 31.1103 72.8133C31.1987 72.8133 31.2871 72.8133 31.464 72.8133C31.464 73.4295 31.1987 74.2217 31.0219 75.014C30.6682 76.5104 30.2262 78.0068 30.8451 78.8871C31.1987 79.3272 31.7292 79.5913 32.5249 79.5913C32.7017 79.5913 33.3206 79.5913 33.9395 79.5913C35.5309 79.6793 36.8571 79.7673 37.2992 79.2392C37.3876 79.1511 37.476 78.8871 37.2992 78.535C37.034 78.0068 36.4151 77.6547 35.8846 77.3906C35.0889 76.9505 34.47 76.5984 34.9121 75.5421C36.0614 72.7253 37.476 68.9403 38.537 64.9791C39.0675 65.1552 39.0675 65.6833 39.1559 66.1235C39.1559 66.2995 39.1559 66.5636 39.2443 66.7396C40.1284 68.9403 40.2168 71.1409 40.3052 73.5176C40.3052 75.19 40.4821 77.0385 40.8357 78.711C40.8357 79.1511 41.2778 79.5032 41.7198 79.5032C42.8692 79.5032 44.3722 79.6793 45.61 79.6793C46.8478 79.6793 47.3783 79.6793 47.5551 79.4152C47.6435 79.2392 47.7319 79.0631 47.6435 78.799C47.5551 78.3589 47.0246 77.9188 46.4941 77.7427C44.2838 77.0386 44.2838 76.8625 44.7259 73.7816C44.7259 73.4295 44.8143 73.0774 44.9027 72.5493C44.9027 71.3169 45.0795 70.4367 45.1679 69.8205C45.1679 69.3804 45.2564 69.1163 45.2564 68.8522C45.5216 66.2995 44.9027 63.7468 44.3722 61.3701L44.1954 60.6659C44.107 60.1378 44.0186 59.6977 44.4606 59.3456C45.2563 58.8174 45.2564 57.9372 45.2564 57.0569C45.2564 56.7928 45.2564 56.4407 45.2564 56.1767C45.6984 55.0323 46.1405 48.8706 46.1405 48.8706V48.6065C45.8752 47.1101 47.9087 46.0538 49.7654 44.9975C50.6495 44.5574 51.4452 44.1173 51.8873 43.6771C51.9757 43.6771 54.0092 42.7969 56.1311 42.0047C56.8384 42.6208 56.8384 44.5574 56.9268 46.2298C56.9268 47.2861 56.9268 48.2544 57.1037 48.9586C57.1037 49.1347 57.1037 49.3107 56.9268 49.4868C56.8384 49.5748 56.6616 49.6628 56.5732 49.6628C53.744 49.6628 50.9148 50.0149 47.9087 50.9832C46.1405 51.5113 46.4941 53.2718 46.8478 54.6802V54.9443C47.4667 59.2575 50.4727 61.8102 53.3903 64.1869C56.0427 66.3875 58.6067 68.5001 59.4908 71.9331C59.6676 72.6373 59.8445 73.5175 59.4908 74.0457C59.314 74.3098 58.8719 74.3978 58.4299 74.3978C57.3689 74.3098 56.3079 74.2218 55.3354 74.2218C53.0367 74.1337 50.9148 73.9577 48.7929 73.5176C48.3508 73.3415 47.7319 73.5176 47.5551 73.7816C47.2014 74.0457 47.2014 74.6619 47.5551 75.014C48.2624 77.1266 48.9697 78.711 51.0916 78.535C54.7165 78.535 58.3414 78.2709 62.32 78.0948C65.5913 77.8308 65.5029 76.3343 65.4145 73.6056V73.0774L65.5029 73.3415Z" fill="#2e3826"></path><path d="M113.245 45.3499L112.803 45.0858C112.096 43.9415 109.62 40.3325 105.465 34.3468C105.465 34.3468 105.2 33.4665 104.493 31.9701C105.023 31.9701 105.996 31.9701 107.499 31.53C109.178 31.0899 110.239 30.6497 110.77 30.2096C111.123 29.8575 111.477 29.3294 111.742 28.6252C112.008 27.921 112.096 27.2168 112.096 26.6006C112.096 25.1042 111.566 23.9599 110.681 23.4317C109.974 22.9916 108.825 22.7275 107.233 22.7275C105.642 22.7275 105.73 22.7275 104.669 22.7275C104.404 32.6743 104.404 40.0684 104.669 44.9098C103.343 44.9098 101.752 44.9978 99.8066 45.1739C99.8066 44.2056 99.9835 39.7163 100.16 31.53C100.16 28.3611 100.16 24.4 99.9835 19.6466C100.868 19.6466 102.282 19.6466 104.316 19.4706C105.996 19.4706 107.233 19.3826 108.206 19.3826C113.687 19.3826 116.517 21.5832 116.605 25.9844C116.605 27.833 115.986 29.5935 114.66 31.1779C113.511 32.5863 112.008 33.5546 110.416 34.0827C112.361 36.8995 113.864 39.1001 115.014 40.6846C115.721 41.5648 116.959 43.0613 118.639 45.1739C117.401 45.1739 115.721 45.3499 113.422 45.4379" fill="#2e3826"></path><path d="M125.358 22.7274L124.916 23.1675C124.385 23.1675 123.324 23.4316 121.733 23.6956C121.998 22.4633 122.263 20.6148 122.617 18.062C123.501 18.062 125.092 17.886 127.214 17.798L125.358 22.8154V22.7274ZM125.534 44.9977C123.943 44.9977 122.44 45.1737 121.025 45.2617C121.291 40.5964 121.467 36.8994 121.467 33.9945C121.467 31.0897 121.379 28.8011 121.202 26.5124C122.882 26.2484 124.208 25.8963 125.358 25.6322L125.888 25.8963C125.446 32.5861 125.358 38.9239 125.623 44.9096" fill="#2e3826"></path><path d="M141.715 45.0858L141.361 44.6457C141.361 43.5894 141.361 41.6528 141.538 38.836C141.538 36.4594 141.538 34.6108 141.538 33.1144C141.538 31.9701 141.272 31.0018 140.83 30.2976C140.388 29.5054 139.681 29.0653 138.797 29.0653C137.382 29.0653 135.968 29.6814 134.465 30.8258C134.376 36.1073 134.465 40.6846 134.465 44.3816L134.111 44.7337C132.696 44.7337 131.282 44.9097 129.867 44.9978C130.044 39.7163 130.132 35.9312 130.132 33.6426C130.132 31.706 129.956 29.5054 129.867 26.8646C130.309 26.6006 130.574 26.5125 130.751 26.5125C131.193 26.5125 132.254 26.7766 133.757 27.3928C135.614 26.3365 137.736 25.8083 140.211 25.8083C142.687 25.8083 145.516 27.7449 145.516 31.618C145.516 32.6743 145.516 34.2587 145.516 36.2833C145.516 38.3079 145.516 39.8923 145.516 40.9486C145.516 42.0929 145.516 43.3253 145.693 44.6457C144.102 44.6457 142.775 44.8217 141.626 44.9097" fill="#2e3826"></path><path d="M159.574 29.3293C157.54 29.2413 156.037 29.8574 154.977 31.1778C153.916 32.4982 153.385 34.4347 153.474 36.9874C153.474 38.5719 153.827 39.8923 154.534 40.7725C155.242 41.7408 156.126 42.2689 157.364 42.2689C158.601 42.2689 159.751 41.7408 160.812 40.7725C160.812 37.5156 160.812 34.0826 160.812 30.3856C160.812 30.1215 160.723 29.9455 160.458 29.6814C160.193 29.4173 159.928 29.3293 159.574 29.2413M165.056 36.5473C165.056 37.8677 165.056 40.5965 164.879 44.6456C164.879 46.7582 164.171 48.6067 162.845 50.1031C162.403 50.6313 161.696 51.1594 160.723 51.5996C159.751 52.1277 158.778 52.3918 157.983 52.3918C157.01 52.3918 155.949 52.3918 154.711 52.2157C153.12 51.9517 151.97 51.6876 151.086 51.2475L151.263 46.7582C153.208 48.2546 155.153 49.0469 157.098 49.0469C159.043 49.0469 157.894 49.0469 158.248 48.8708C159.928 48.2546 160.812 46.8462 160.9 44.4696C159.397 45.3498 157.983 45.7899 156.568 45.7899C154.358 45.7899 152.501 44.9977 151.175 43.3252C149.849 41.7408 149.23 39.7162 149.141 37.2515C149.053 33.6425 150.025 30.9137 152.059 28.9772C154.004 27.1287 156.48 26.2484 159.662 26.2484C162.845 26.2484 162.757 26.4245 163.464 26.8646C164.437 27.3927 164.967 28.449 165.056 29.9455V36.6353V36.5473Z" fill="#2e3826"></path><path d="M191.756 35.227C191.137 38.4839 190.076 41.6528 188.661 44.7337L188.307 45.0858C188.484 45.0858 186.893 45.0858 183.533 45.2618L183.091 44.8217C182.826 43.1492 182.384 40.9486 181.765 38.2198C181.058 35.0509 180.527 32.8503 180.35 31.706L179.024 37.3396C178.582 38.924 177.963 41.3007 177.167 44.5576L176.814 44.9097C175.222 44.9097 173.719 44.9097 172.216 44.9097L171.863 44.4696C171.244 41.7408 169.652 35.6671 167 26.1604C168.857 26.0724 170.36 25.9844 171.332 25.8964L171.686 26.2485C172.216 29.7695 173.277 34.4348 174.692 40.2444C175.488 37.1635 176.46 32.6743 177.786 26.7766L178.14 26.4245C178.759 26.4245 179.466 26.4245 180.35 26.4245C181.5 26.4245 182.295 26.3365 182.561 26.3365L182.914 26.6886C183.268 28.5371 183.798 30.9138 184.506 33.8186C185.39 37.5156 185.92 39.8043 186.186 40.7726C186.804 39.1001 187.423 36.5474 187.954 33.2904C188.396 30.2096 188.661 27.9209 188.573 26.3365C189.545 26.3365 191.048 26.1604 193.259 25.9844C192.993 28.185 192.463 31.2659 191.667 35.139" fill="#2e3826"></path><path d="M203.692 28.9772C200.509 28.9772 199.094 31.618 199.271 36.8994C199.271 38.5719 199.713 39.9803 200.332 40.9486C201.039 42.0929 202.1 42.7091 203.427 42.7091C206.521 42.7091 208.024 40.3324 207.936 35.491C207.759 31.1778 206.433 28.9772 203.78 28.9772M203.338 45.6139C200.686 45.6139 198.652 44.8217 197.238 43.2372C195.823 41.6528 195.027 39.4522 194.939 36.6354C194.851 33.3784 195.558 30.8257 197.061 28.9772C198.652 27.0407 201.039 26.0724 204.046 26.0724C207.052 26.0724 208.643 26.8646 210.058 28.5371C211.384 30.1215 212.18 32.2341 212.18 34.9629C212.268 38.2198 211.649 40.7725 210.146 42.6211C208.643 44.6456 206.344 45.6139 203.338 45.6139Z" fill="#2e3826"></path><path d="M223.142 28.9772C219.959 28.9772 218.545 31.618 218.721 36.8994C218.721 38.5719 219.163 39.9803 219.782 40.9486C220.49 42.0929 221.551 42.7091 222.877 42.7091C225.971 42.7091 227.474 40.3324 227.386 35.491C227.209 31.1778 225.883 28.9772 223.23 28.9772M222.788 45.6139C220.136 45.6139 218.103 44.8217 216.688 43.2372C215.273 41.6528 214.478 39.4522 214.389 36.6354C214.301 33.3784 215.008 30.8257 216.511 28.9772C218.103 27.0407 220.49 26.0724 223.496 26.0724C226.502 26.0724 228.093 26.8646 229.508 28.5371C230.834 30.1215 231.63 32.2341 231.63 34.9629C231.718 38.2198 231.099 40.7725 229.596 42.6211C228.093 44.6456 225.794 45.6139 222.788 45.6139Z" fill="#2e3826"></path><path d="M244.627 28.9772C242.505 28.9772 240.825 29.5934 239.676 30.9137C238.527 32.2341 237.908 34.0826 237.996 36.5473C237.996 38.1318 238.35 39.4521 239.057 40.4204C239.764 41.4767 240.825 42.0049 242.063 42.0049C243.301 42.0049 244.539 41.4767 245.688 40.5084C245.776 36.9875 245.865 33.2024 245.865 29.0652C245.334 29.0652 244.892 29.0652 244.627 29.0652M250.02 36.0192C250.02 39.1 250.109 41.9168 250.285 44.4696L249.843 44.9977C249.136 44.9977 248.517 44.8217 247.898 44.5576C247.279 44.2935 246.66 44.0294 246.13 43.7654C244.362 44.8217 242.77 45.3498 241.267 45.3498C238.969 45.3498 237.112 44.4696 235.697 42.7971C234.371 41.2126 233.664 39.1 233.575 36.6353C233.487 33.0263 234.548 30.2976 236.67 28.449C238.615 26.6885 241.267 25.8083 244.539 25.8083C247.81 25.8083 245.423 25.8083 245.865 25.8083C245.865 23.3436 245.865 20.8789 245.688 18.4142C246.926 18.1501 248.429 17.798 250.285 17.3579C250.02 23.6077 249.843 29.7694 249.843 35.9312" fill="#2e3826"></path><path d="M286.446 32.0581C285.739 34.7869 284.855 39.012 283.617 44.6456L283.175 45.0858C281.318 45.0858 279.55 45.1738 277.782 45.3498L277.34 44.9097C276.986 42.533 276.544 39.8043 276.014 36.7234C275.129 31.9701 274.599 29.3293 274.511 28.8892C273.892 31.1778 272.919 34.7869 271.681 39.7162C271.416 40.7725 270.974 42.445 270.355 44.6456L270.002 45.0858C269.029 45.0858 267.438 45.1738 265.05 45.3498L264.608 44.8217C263.989 41.8288 263.194 37.4276 262.044 31.4419C261.514 28.8892 261.16 27.1287 260.983 26.0724C260.541 24.0478 260.099 22.1113 259.657 20.4388L260.188 20.0867C261.691 20.0867 263.105 19.9987 264.432 19.8226L264.785 20.3508C265.05 22.2873 265.492 25.1921 266.111 29.0652L267.968 39.1001C269.029 35.315 270.444 29.6814 272.389 22.1113L272.742 21.6712C273.45 21.6712 274.776 21.6712 276.809 21.4951L277.251 21.9352C277.34 23.5197 278.489 29.2413 280.611 39.1881L283.087 28.4491C283.44 26.7766 283.971 24.2239 284.678 20.7909L285.032 20.3508C286.181 20.3508 287.684 20.2628 289.541 20.0867C288.48 23.7837 287.507 27.8329 286.535 32.2341" fill="#2e3826"></path><path d="M299.886 29.3293C297.852 29.2413 296.349 29.8575 295.288 31.1778C294.227 32.4982 293.697 34.4347 293.785 36.8994C293.785 38.4839 294.227 39.7162 294.846 40.6845C295.465 41.6528 296.437 42.0929 297.675 42.0929C298.913 42.0929 299.974 41.5648 301.035 40.5965C301.035 34.9629 301.123 31.5299 301.123 30.3856C301.123 29.2413 301.035 29.9455 300.77 29.6814C300.504 29.4173 300.239 29.2413 299.886 29.2413M305.279 37.1635C305.279 41.5648 305.279 44.0295 305.279 44.6456L305.013 45.3498C304.218 45.3498 303.599 45.0858 303.068 44.8217C302.538 44.5576 302.007 44.2055 301.477 43.8534C299.797 44.9097 298.294 45.4379 296.879 45.4379C294.669 45.4379 292.812 44.6456 291.486 42.9732C290.16 41.3887 289.541 39.4522 289.453 36.9875C289.364 33.4665 290.337 30.7377 292.37 28.8012C294.316 26.9526 296.791 26.0724 299.974 26.0724C303.157 26.0724 303.068 26.2484 303.776 26.6886C304.748 27.2167 305.279 28.273 305.367 29.6814C305.367 29.8575 305.367 30.9138 305.367 32.8503C305.367 34.9629 305.367 36.3713 305.367 37.0755" fill="#2e3826"></path><path d="M313.942 32.2341C313.942 36.7233 313.942 40.6844 314.031 43.9414V44.9977C312.97 44.9977 311.467 45.0857 309.61 45.1737C309.787 39.7162 309.875 35.579 309.875 32.5862C309.875 29.5933 309.787 24.6639 309.521 21.231C310.848 20.9669 312.439 20.7028 314.119 20.3507C314.119 21.9352 313.942 25.8963 313.942 32.2341Z" fill="#2e3826"></path><path d="M327.912 28.9772C325.79 28.9772 324.11 29.5934 322.961 30.9137C321.812 32.2341 321.193 34.0826 321.281 36.5473C321.281 38.1318 321.635 39.4521 322.342 40.4204C323.049 41.4767 324.11 42.0049 325.348 42.0049C326.586 42.0049 327.824 41.4767 328.973 40.5084C329.062 36.9875 329.15 33.2024 329.15 29.0652C328.619 29.0652 328.177 29.0652 327.912 29.0652M333.305 36.0192C333.305 39.1 333.394 41.9168 333.571 44.4696L333.129 44.9977C332.421 44.9977 331.802 44.8217 331.183 44.5576C330.565 44.2935 329.946 44.0294 329.415 43.7654C327.647 44.8217 326.056 45.3498 324.552 45.3498C322.254 45.3498 320.397 44.4696 318.982 42.7971C317.656 41.2126 316.949 39.1 316.861 36.6353C316.772 33.0263 317.833 30.2976 319.955 28.449C321.9 26.6885 324.552 25.8083 327.824 25.8083C331.095 25.8083 328.708 25.8083 329.15 25.8083C329.15 23.3436 329.15 20.8789 328.973 18.4142C330.211 18.1501 331.714 17.798 333.571 17.3579C333.305 23.6077 333.129 29.7694 333.129 35.9312" fill="#2e3826"></path><path d="M345.595 28.9772C342.412 28.9772 340.998 31.618 341.175 36.8994C341.175 38.5719 341.617 39.9803 342.236 40.9486C342.943 42.0929 344.004 42.7091 345.33 42.7091C348.424 42.7091 349.927 40.3324 349.839 35.491C349.662 31.1778 348.336 28.9772 345.684 28.9772M345.242 45.6139C342.589 45.6139 340.556 44.8217 339.141 43.2372C337.726 41.6528 336.931 39.4522 336.842 36.6354C336.754 33.3784 337.461 30.8257 338.964 28.9772C340.556 27.0407 342.943 26.0724 345.949 26.0724C348.955 26.0724 350.546 26.8646 351.961 28.5371C353.287 30.1215 354.083 32.2341 354.083 34.9629C354.171 38.2198 353.552 40.7725 352.049 42.6211C350.546 44.6456 348.248 45.6139 345.242 45.6139Z" fill="#2e3826"></path><path d="M367.963 28.8012C366.725 29.0653 366.018 29.1533 365.929 29.1533C365.222 29.3294 364.603 29.5934 364.072 30.0336C363.011 30.8258 362.304 32.1462 361.951 33.9067C361.685 35.051 361.597 36.8115 361.597 38.9241C361.597 41.0367 361.597 42.7972 361.685 44.9098C360.713 44.9098 359.21 44.9978 357.265 45.1738C357.441 38.3959 357.53 33.6426 357.53 31.0018C357.53 30.5617 357.441 29.1533 357.265 26.8647C358.149 26.6006 359.652 26.2485 361.774 25.8084V28.5371C362.481 27.4808 363.454 26.6006 364.426 25.8964C365.575 25.1042 366.725 24.7521 367.697 24.7521C368.67 24.7521 368.316 24.7521 368.847 24.9281C368.67 25.7203 368.316 27.0407 367.963 28.7132" fill="#2e3826"></path><path d="M380.341 17.3579C380.341 17.622 380.341 18.0621 380.341 18.8543H379.722C379.103 18.8543 378.484 18.9424 377.865 19.2945C377.246 19.6466 376.716 20.0867 376.45 20.6148C376.008 21.4071 375.832 23.2556 375.832 26.2484L380.164 26.0724C380.164 26.6885 380.075 27.6568 379.987 28.9772L379.633 29.3293C378.838 29.3293 377.6 29.3293 375.832 29.3293C375.832 33.6425 375.832 37.3396 375.832 40.5084C375.832 41.3007 375.832 42.7971 376.008 44.8217C375.478 44.8217 373.887 44.9097 371.323 45.1738C371.588 41.0366 371.676 35.7551 371.676 29.5934C370.969 29.5934 370.35 29.5934 369.731 29.5934L369.289 29.1532C369.289 28.5371 369.377 27.7448 369.466 26.8646L369.996 26.3364H371.588C371.765 21.7592 372.826 18.6783 374.771 17.1819C376.097 16.1256 377.423 15.5974 378.661 15.5974C379.899 15.5974 379.81 15.5974 380.606 15.6854C380.429 16.3016 380.341 16.7417 380.341 17.1819" fill="#2e3826"></path><path d="M396.254 45.614C393.867 45.614 391.657 45.0858 389.446 44.0295C389.535 42.9733 389.712 41.8289 389.8 40.5086L390.596 40.1565C392.541 41.5649 394.397 42.2691 396.166 42.2691C397.934 42.2691 398.641 42.005 399.525 41.3888C400.586 40.6846 401.028 39.6283 401.028 38.3079C401.028 36.8115 400.056 35.4911 398.111 34.6109C396.342 33.7306 394.574 32.9384 392.718 32.0582C390.772 30.7378 389.8 28.8893 389.8 26.5126C389.8 23.9599 390.772 22.1114 392.806 20.791C394.486 19.7347 396.431 19.2065 398.818 19.2065C401.205 19.2065 402.443 19.5586 404.742 20.2628L405.007 20.6149C404.919 21.6712 404.742 22.7275 404.742 23.7838L404.123 24.1359C402.089 23.0796 400.409 22.5515 398.906 22.5515C397.403 22.5515 396.608 22.8156 395.812 23.3437C394.839 23.9599 394.309 24.8401 394.397 25.9845C394.397 27.3048 395.458 28.4492 397.403 29.4174C399.26 30.2977 401.028 31.1779 402.885 32.0582C404.83 33.3785 405.891 35.139 405.891 37.4277C405.891 40.2445 404.919 42.3571 402.973 43.8535C401.294 45.0858 399.083 45.702 396.519 45.702" fill="#2e3826"></path><path d="M422.337 29.8575L421.63 30.2096C420.569 29.5934 419.508 29.2413 418.447 29.2413C416.678 29.2413 415.264 30.0335 414.203 31.5299C413.23 32.8503 412.7 34.5228 412.7 36.3713C412.7 38.2198 413.142 39.4522 413.938 40.5085C414.822 41.7408 415.971 42.357 417.563 42.357C419.154 42.357 420.657 41.4767 422.691 39.7163C422.514 41.6528 422.425 43.0612 422.425 43.8534C421.099 44.9977 419.331 45.5259 416.944 45.5259C414.557 45.5259 412.081 44.5576 410.578 42.7091C409.163 41.0366 408.456 38.836 408.456 36.3713C408.456 33.9066 409.252 31.2659 410.843 29.2413C412.7 27.0407 415.087 25.9844 418.093 25.9844C421.099 25.9844 421.187 26.2484 422.602 26.7766C422.514 27.9209 422.425 28.9772 422.337 29.7694" fill="#2e3826"></path><path d="M440.992 44.7337C440.727 46.5823 439.401 47.7266 437.014 48.0787L437.191 44.8218C437.191 43.4134 437.191 41.5649 437.191 39.3642C437.191 37.6037 437.102 35.7552 437.014 33.9947C437.014 30.9138 436.13 29.3294 434.361 29.3294C432.593 29.3294 431.709 29.9456 430.029 31.2659C429.941 36.3714 430.029 40.9487 430.029 44.9978C429.057 44.9978 427.554 45.0858 425.432 45.2619C425.608 41.1247 425.697 36.2834 425.785 30.5617C425.785 25.2803 425.785 21.3191 425.697 18.5023C426.935 18.2383 428.526 17.8862 430.471 17.446C430.206 20.4389 430.118 23.9599 430.029 27.921C432.239 26.6006 434.184 25.8964 435.864 25.8964C439.489 25.8964 441.346 27.921 441.434 31.9701C441.434 34.5229 441.434 38.7481 441.081 44.7337" fill="#2e3826"></path><path d="M453.458 28.9772C450.275 28.9772 448.86 31.618 449.037 36.8994C449.037 38.5719 449.479 39.9803 450.098 40.9486C450.805 42.0929 451.866 42.7091 453.192 42.7091C456.287 42.7091 457.79 40.3324 457.701 35.491C457.524 31.1778 456.198 28.9772 453.546 28.9772M453.104 45.6139C450.451 45.6139 448.418 44.8217 447.003 43.2372C445.589 41.6528 444.793 39.4522 444.705 36.6354C444.616 33.3784 445.324 30.8257 446.827 28.9772C448.418 27.0407 450.805 26.0724 453.811 26.0724C456.817 26.0724 458.409 26.8646 459.823 28.5371C461.149 30.1215 461.945 32.2341 461.945 34.9629C462.034 38.2198 461.415 40.7725 459.912 42.6211C458.409 44.6456 456.11 45.6139 453.104 45.6139Z" fill="#2e3826"></path><path d="M472.909 28.9772C469.726 28.9772 468.311 31.618 468.488 36.8994C468.488 38.5719 468.93 39.9803 469.549 40.9486C470.256 42.0929 471.317 42.7091 472.643 42.7091C475.738 42.7091 477.241 40.3324 477.152 35.491C476.976 31.1778 475.649 28.9772 472.997 28.9772M472.555 45.6139C469.903 45.6139 467.869 44.8217 466.455 43.2372C465.04 41.6528 464.244 39.4522 464.156 36.6354C464.067 33.3784 464.775 30.8257 466.278 28.9772C467.869 27.0407 470.256 26.0724 473.262 26.0724C476.268 26.0724 477.86 26.8646 479.274 28.5371C480.601 30.1215 481.396 32.2341 481.396 34.9629C481.485 38.2198 480.866 40.7725 479.363 42.6211C477.86 44.6456 475.561 45.6139 472.555 45.6139Z" fill="#2e3826"></path><path d="M488.823 30.7378C488.823 35.7552 488.823 40.1565 488.911 43.8535V44.9978C487.85 44.9978 486.347 45.0858 484.491 45.2619C484.668 39.1882 484.756 34.5229 484.756 31.1779C484.756 27.833 484.668 22.2874 484.402 18.5023C485.729 18.2383 487.32 17.8862 489 17.446C489 19.2065 488.823 23.6078 488.823 30.7378Z" fill="#2e3826"></path><path d="M101.929 55.2086V67.7962H100.249V55.2086H101.929Z" fill="#2e3826"></path><path d="M104.581 61.1943C104.581 60.2261 104.581 59.5219 104.581 58.7296H106.084V60.2261H106.172C106.615 59.3458 107.675 58.5536 109.179 58.5536C110.682 58.5536 112.361 59.3458 112.361 62.4267V67.8842H110.682V62.6908C110.682 61.1943 110.151 60.05 108.56 60.05C106.968 60.05 106.615 60.8422 106.349 61.7225C106.349 61.8985 106.261 62.2506 106.261 62.5147V67.9722H104.581V61.3704V61.1943Z" fill="#2e3826"></path><path d="M122.795 54.5044V65.5075C122.795 66.2997 122.795 67.268 122.795 67.8842H121.292V66.2997H121.203C120.673 67.268 119.612 68.0602 118.109 68.0602C115.899 68.0602 114.219 66.2117 114.219 63.4829C114.219 60.4901 116.075 58.6416 118.286 58.6416C120.496 58.6416 120.584 59.2577 121.027 60.05V54.5924H122.706L122.795 54.5044ZM121.203 62.4266C121.203 62.2506 121.203 61.8985 121.203 61.7224C120.938 60.6661 120.054 59.7859 118.816 59.7859C117.578 59.7859 116.075 61.2823 116.075 63.3069C116.075 65.3315 116.96 66.6518 118.728 66.6518C120.496 66.6518 120.85 65.9476 121.115 64.7153C121.115 64.4512 121.115 64.2751 121.115 64.0111V62.4266H121.203Z" fill="#2e3826"></path><path d="M126.419 63.5709C126.419 65.7715 127.922 66.7398 129.513 66.7398C131.104 66.7398 131.37 66.5637 132.077 66.2997L132.342 67.444C131.723 67.7081 130.751 67.9721 129.336 67.9721C126.507 67.9721 124.827 66.1236 124.827 63.3948C124.827 60.6661 126.419 58.4655 129.071 58.4655C131.723 58.4655 132.873 61.1062 132.873 62.7787C132.873 64.4511 132.873 63.3948 132.873 63.5709H126.507H126.419ZM131.281 62.4266C131.281 61.3703 130.839 59.7858 128.983 59.7858C127.126 59.7858 126.595 61.2822 126.419 62.4266H131.281Z" fill="#2e3826"></path><path d="M134.818 61.7225C134.818 60.5782 134.818 59.6099 134.818 58.7296H136.321V60.3141H136.41C137.117 59.1698 138.178 58.5536 139.681 58.5536C141.891 58.5536 143.571 60.4021 143.571 63.1309C143.571 65.8596 141.538 67.9722 139.416 67.9722C137.294 67.9722 137.117 67.4441 136.587 66.5638V71.4932H134.907V61.6345L134.818 61.7225ZM136.498 64.0992C136.498 64.3632 136.498 64.5393 136.498 64.8034C136.763 65.9477 137.824 66.7399 138.974 66.7399C140.742 66.7399 141.715 65.3315 141.715 63.2189C141.715 61.1063 140.742 59.874 138.974 59.874C137.206 59.874 136.763 60.6662 136.498 61.8985C136.498 62.0746 136.41 62.3387 136.41 62.6027V64.1872L136.498 64.0992Z" fill="#2e3826"></path><path d="M146.577 63.5709C146.577 65.7715 148.08 66.7398 149.671 66.7398C151.263 66.7398 151.528 66.5637 152.235 66.2997L152.5 67.444C151.882 67.7081 150.909 67.9721 149.494 67.9721C146.665 67.9721 144.985 66.1236 144.985 63.3948C144.985 60.6661 146.577 58.4655 149.229 58.4655C151.882 58.4655 153.031 61.1062 153.031 62.7787C153.031 64.4511 153.031 63.3948 153.031 63.5709H146.665H146.577ZM151.439 62.4266C151.439 61.3703 150.997 59.7858 149.141 59.7858C147.284 59.7858 146.754 61.2822 146.577 62.4266H151.439Z" fill="#2e3826"></path><path d="M154.977 61.1943C154.977 60.2261 154.977 59.5219 154.977 58.7296H156.48V60.2261H156.568C157.01 59.3458 158.071 58.5536 159.574 58.5536C161.077 58.5536 162.757 59.3458 162.757 62.4267V67.8842H161.077V62.6908C161.077 61.1943 160.547 60.05 158.955 60.05C157.364 60.05 157.01 60.8422 156.745 61.7225C156.745 61.8985 156.656 62.2506 156.656 62.5147V67.9722H154.977V61.3704V61.1943Z" fill="#2e3826"></path><path d="M173.189 54.5044V65.5075C173.189 66.2997 173.189 67.268 173.189 67.8842H171.686V66.2997H171.598C171.067 67.268 170.006 68.0602 168.503 68.0602C166.293 68.0602 164.613 66.2117 164.613 63.4829C164.613 60.4901 166.47 58.6416 168.68 58.6416C170.891 58.6416 170.979 59.2577 171.421 60.05V54.5924H173.101L173.189 54.5044ZM171.598 62.4266C171.598 62.2506 171.598 61.8985 171.598 61.7224C171.333 60.6661 170.449 59.7859 169.211 59.7859C167.973 59.7859 166.47 61.2823 166.47 63.3069C166.47 65.3315 167.354 66.6518 169.122 66.6518C170.891 66.6518 171.244 65.9476 171.509 64.7153C171.509 64.4512 171.509 64.2751 171.509 64.0111V62.4266H171.598Z" fill="#2e3826"></path><path d="M176.815 63.5709C176.815 65.7715 178.318 66.7398 179.91 66.7398C181.501 66.7398 181.766 66.5637 182.473 66.2997L182.739 67.444C182.12 67.7081 181.147 67.9721 179.733 67.9721C176.903 67.9721 175.224 66.1236 175.224 63.3948C175.224 60.6661 176.815 58.4655 179.467 58.4655C182.12 58.4655 183.269 61.1062 183.269 62.7787C183.269 64.4511 183.269 63.3948 183.269 63.5709H176.903H176.815ZM181.678 62.4266C181.678 61.3703 181.236 59.7858 179.379 59.7858C177.522 59.7858 176.992 61.2822 176.815 62.4266H181.678Z" fill="#2e3826"></path><path d="M185.213 61.1943C185.213 60.2261 185.213 59.5219 185.213 58.7296H186.716V60.2261H186.804C187.246 59.3458 188.307 58.5536 189.81 58.5536C191.313 58.5536 192.993 59.3458 192.993 62.4267V67.8842H191.313V62.6908C191.313 61.1943 190.783 60.05 189.191 60.05C187.6 60.05 187.246 60.8422 186.981 61.7225C186.981 61.8985 186.893 62.2506 186.893 62.5147V67.9722H185.213V61.3704V61.1943Z" fill="#2e3826"></path><path d="M197.415 56.177V58.8178H199.802V60.0501H197.415V64.9795C197.415 66.1238 197.769 66.74 198.653 66.74C199.537 66.74 199.449 66.74 199.626 66.652V67.8843C199.36 67.9723 198.83 68.1484 198.211 68.1484C197.592 68.1484 196.796 67.8843 196.443 67.4442C196.001 66.916 195.824 66.1238 195.824 65.0675V60.1381H194.409V58.9058H195.824V56.7052L197.415 56.265V56.177Z" fill="#2e3826"></path><path d="M212.445 61.8986H207.494V66.4759H212.976V67.8843H205.814V55.2968H212.622V56.7052H207.406V60.6663H212.357V61.9866L212.445 61.8986Z" fill="#2e3826"></path><path d="M222.612 54.5044V65.5075C222.612 66.2997 222.612 67.268 222.612 67.8842H221.109V66.2997H221.021C220.49 67.268 219.429 68.0602 217.926 68.0602C215.716 68.0602 214.036 66.2117 214.036 63.4829C214.036 60.4901 215.893 58.6416 218.103 58.6416C220.313 58.6416 220.402 59.2577 220.844 60.05V54.5924H222.524L222.612 54.5044ZM221.021 62.4266C221.021 62.2506 221.021 61.8985 221.021 61.7224C220.755 60.6661 219.871 59.7859 218.634 59.7859C217.396 59.7859 215.893 61.2823 215.893 63.3069C215.893 65.3315 216.777 66.6518 218.545 66.6518C220.313 66.6518 220.667 65.9476 220.932 64.7153C220.932 64.4512 220.932 64.2751 220.932 64.0111V62.4266H221.021Z" fill="#2e3826"></path><path d="M232.868 65.3315C232.868 66.2998 232.868 67.092 232.868 67.7962H231.365V66.2998H231.277C230.835 67.004 229.862 67.9722 228.271 67.9722C226.679 67.9722 225.088 67.18 225.088 64.0111V58.7296H226.768V63.747C226.768 65.5075 227.298 66.6519 228.801 66.6519C230.304 66.6519 230.658 65.8596 231.012 65.1554C231.1 64.8914 231.188 64.6273 231.188 64.2752V58.7296H232.868V65.3315Z" fill="#2e3826"></path><path d="M241.975 67.444C241.533 67.7081 240.56 67.9721 239.323 67.9721C236.582 67.9721 234.813 66.1236 234.813 63.3068C234.813 60.49 236.759 58.4655 239.676 58.4655C242.594 58.4655 241.533 58.7295 241.975 58.9056L241.621 60.1379C241.268 59.8739 240.649 59.6978 239.676 59.6978C237.554 59.6978 236.493 61.1942 236.493 63.1308C236.493 65.0673 237.82 66.5637 239.676 66.5637C241.533 66.5637 241.268 66.2997 241.71 66.1236L241.975 67.356V67.444Z" fill="#2e3826"></path><path d="M248.959 67.7962V66.6519H248.782C248.252 67.3561 247.279 67.9722 245.953 67.9722C244.097 67.9722 243.124 66.6519 243.124 65.3315C243.124 63.1309 245.069 61.8985 248.606 61.9866V61.8105C248.606 61.0183 248.429 59.6979 246.572 59.6979C244.715 59.6979 244.804 59.962 244.185 60.4021L243.831 59.3458C244.627 58.8177 245.688 58.5536 246.837 58.5536C249.667 58.5536 250.285 60.4021 250.285 62.2506V65.6836C250.285 66.4758 250.285 67.268 250.462 67.8842H248.959V67.7962ZM248.694 63.2189C246.926 63.2189 244.804 63.483 244.804 65.2435C244.804 67.004 245.511 66.8279 246.395 66.8279C247.279 66.8279 248.34 66.0357 248.606 65.3315C248.606 65.1554 248.694 64.9794 248.694 64.8034V63.2189Z" fill="#2e3826"></path><path d="M254.706 56.177V58.8178H257.093V60.0501H254.706V64.9795C254.706 66.1238 255.06 66.74 255.944 66.74C256.828 66.74 256.74 66.74 256.917 66.652V67.8843C256.651 67.9723 256.121 68.1484 255.502 68.1484C254.883 68.1484 254.087 67.8843 253.734 67.4442C253.292 66.916 253.115 66.1238 253.115 65.0675V60.1381H251.7V58.9058H253.115V56.7052L254.706 56.265V56.177Z" fill="#2e3826"></path><path d="M260.63 56.1769C260.63 56.7051 260.277 57.1452 259.569 57.1452C258.862 57.1452 258.597 56.7051 258.597 56.1769C258.597 55.6488 259.039 55.1206 259.658 55.1206C260.277 55.1206 260.63 55.5607 260.63 56.1769ZM258.774 67.7962V58.7296H260.453V67.7962H258.774Z" fill="#2e3826"></path><path d="M271.328 63.2189C271.328 66.5639 269.029 68.0603 266.819 68.0603C264.608 68.0603 262.486 66.2998 262.486 63.395C262.486 60.4901 264.52 58.5536 266.995 58.5536C269.471 58.5536 271.416 60.4021 271.416 63.2189H271.328ZM264.078 63.3069C264.078 65.3315 265.227 66.8279 266.819 66.8279C268.41 66.8279 269.559 65.3315 269.559 63.3069C269.559 61.2824 268.764 59.7859 266.819 59.7859C264.873 59.7859 263.989 61.5464 263.989 63.3069H264.078Z" fill="#2e3826"></path><path d="M273.361 61.1943C273.361 60.2261 273.361 59.5219 273.361 58.7296H274.864V60.2261H274.953C275.395 59.3458 276.456 58.5536 277.959 58.5536C279.462 58.5536 281.142 59.3458 281.142 62.4267V67.8842H279.462V62.6908C279.462 61.1943 278.931 60.05 277.34 60.05C275.748 60.05 275.395 60.8422 275.13 61.7225C275.13 61.8985 275.041 62.2506 275.041 62.5147V67.9722H273.361V61.3704V61.1943Z" fill="#2e3826"></path><path d="M288.126 67.7962V59.962H286.889V58.7296H288.126V58.2895C288.126 57.0572 288.392 55.8248 289.187 55.1206C289.806 54.5044 290.602 54.2404 291.398 54.2404C292.193 54.2404 292.459 54.3284 292.812 54.5044L292.547 55.7368C292.282 55.6488 291.928 55.5607 291.486 55.5607C290.072 55.5607 289.718 56.7931 289.718 58.2015V58.7296H291.928V59.962H289.718V67.7962H288.038H288.126Z" fill="#2e3826"></path><path d="M293.52 61.5463C293.52 60.49 293.52 59.5217 293.52 58.7295H294.934V60.49H295.023C295.465 59.2577 296.437 58.4655 297.587 58.4655C298.736 58.4655 297.94 58.4655 298.029 58.4655V60.0499C297.852 60.0499 297.675 60.0499 297.498 60.0499C296.349 60.0499 295.465 60.9301 295.288 62.1625C295.288 62.4266 295.288 62.6906 295.288 62.9547V67.7961H293.608V61.5463H293.52Z" fill="#2e3826"></path><path d="M307.754 63.2189C307.754 66.5639 305.456 68.0603 303.245 68.0603C301.035 68.0603 298.913 66.2998 298.913 63.395C298.913 60.4901 300.947 58.5536 303.422 58.5536C305.898 58.5536 307.843 60.4021 307.843 63.2189H307.754ZM300.505 63.3069C300.505 65.3315 301.654 66.8279 303.245 66.8279C304.837 66.8279 305.986 65.3315 305.986 63.3069C305.986 61.2824 305.19 59.7859 303.245 59.7859C301.3 59.7859 300.416 61.5464 300.416 63.3069H300.505Z" fill="#2e3826"></path><path d="M309.787 61.1943C309.787 60.2261 309.787 59.5219 309.787 58.7296H311.202V60.2261H311.29C311.821 59.3458 312.616 58.5536 314.119 58.5536C315.622 58.5536 316.33 59.3458 316.683 60.4021C316.949 59.874 317.302 59.5219 317.656 59.2578C318.186 58.8177 318.805 58.6416 319.689 58.6416C320.573 58.6416 322.695 59.4338 322.695 62.6027V67.9722H321.104V62.8668C321.104 61.1063 320.485 60.05 319.159 60.05C317.833 60.05 317.479 60.7542 317.214 61.5464C317.214 61.8105 317.125 62.0746 317.125 62.3387V67.9722H315.534V62.5147C315.534 61.1063 314.915 60.05 313.677 60.05C312.439 60.05 311.909 60.8422 311.644 61.7225C311.555 61.9866 311.555 62.2506 311.555 62.5147V67.9722H309.964V61.3704L309.787 61.1943Z" fill="#2e3826"></path><path d="M329.504 65.9476C329.946 66.2117 331.095 66.7399 332.244 66.7399C334.366 66.7399 335.074 65.4195 334.985 64.3632C334.985 62.6907 333.394 61.8985 331.802 61.8985H330.918V60.6661H331.802C333.04 60.6661 334.543 60.05 334.543 58.6416C334.543 57.2332 333.924 56.793 332.421 56.793C330.918 56.793 330.476 57.2332 329.946 57.5853L329.504 56.3529C330.122 55.9128 331.36 55.3846 332.686 55.3846C335.074 55.3846 336.223 56.793 336.223 58.2895C336.223 59.7859 335.427 60.5781 333.924 61.1943C335.427 61.5464 336.665 62.6907 336.665 64.3632C336.665 66.0356 335.162 68.0602 332.244 68.0602C329.327 68.0602 329.68 67.6201 329.062 67.268L329.504 66.0356V65.9476Z" fill="#2e3826"></path><path d="M345.417 56.177V58.8178H347.804V60.0501H345.417V64.9795C345.417 66.1238 345.771 66.74 346.655 66.74C347.539 66.74 347.451 66.74 347.628 66.652V67.8843C347.362 67.9723 346.832 68.1484 346.213 68.1484C345.594 68.1484 344.798 67.8843 344.445 67.4442C344.003 66.916 343.826 66.1238 343.826 65.0675V60.1381H342.411V58.9058H343.826V56.7052L345.417 56.265V56.177Z" fill="#2e3826"></path><path d="M357.619 63.2189C357.619 66.5639 355.32 68.0603 353.11 68.0603C350.899 68.0603 348.777 66.2998 348.777 63.395C348.777 60.4901 350.811 58.5536 353.286 58.5536C355.762 58.5536 357.707 60.4021 357.707 63.2189H357.619ZM350.457 63.3069C350.457 65.3315 351.607 66.8279 353.198 66.8279C354.789 66.8279 355.939 65.3315 355.939 63.3069C355.939 61.2824 355.143 59.7859 353.198 59.7859C351.253 59.7859 350.369 61.5464 350.369 63.3069H350.457Z" fill="#2e3826"></path><path d="M366.99 57.1452L364.868 58.2895L364.515 57.0572L367.167 55.6488H368.582V67.7962H366.99V57.1452Z" fill="#2e3826"></path><path d="M371.765 64.7153C371.765 63.2189 372.649 62.0745 374.152 61.4584C372.826 60.7542 372.207 59.6979 372.207 58.6416C372.207 56.705 373.887 55.3846 376.008 55.3846C378.13 55.3846 379.545 56.8811 379.545 58.3775C379.545 59.8739 379.014 60.4901 377.511 61.1943C379.014 61.8105 379.987 62.9548 379.987 64.3632C379.987 66.4758 378.13 67.8842 375.832 67.8842C373.533 67.8842 371.765 66.3877 371.765 64.6273V64.7153ZM378.307 64.6273C378.307 63.1308 377.246 62.4266 375.655 61.9865C374.24 62.4266 373.444 63.3069 373.444 64.5392C373.444 65.7716 374.329 66.8279 375.92 66.8279C377.511 66.8279 378.396 65.9476 378.396 64.6273H378.307ZM373.798 58.5535C373.798 59.7859 374.682 60.4021 376.097 60.8422C377.158 60.4901 377.954 59.6979 377.954 58.6416C377.954 57.5853 377.335 56.617 375.92 56.617C374.505 56.617 373.798 57.4972 373.798 58.5535Z" fill="#2e3826"></path><path d="M386.883 58.7296L388.917 64.0991C389.094 64.7153 389.359 65.4195 389.536 65.9477C389.713 65.4195 389.89 64.7153 390.155 64.0991L391.923 58.8176H393.691L391.216 65.2435C390.066 68.3243 389.182 69.9088 388.121 70.877C387.326 71.5812 386.53 71.8453 386.088 71.9333L385.646 70.5249C386.088 70.4369 386.618 70.1728 387.06 69.7327C387.502 69.3806 388.033 68.7644 388.475 67.8842C388.475 67.7081 388.563 67.6201 388.563 67.5321C388.563 67.4441 388.563 67.268 388.475 67.092L385.115 58.7296H386.883Z" fill="#2e3826"></path><path d="M395.724 63.5709C395.724 65.7715 397.227 66.7398 398.819 66.7398C400.41 66.7398 400.675 66.5637 401.383 66.2997L401.648 67.444C401.029 67.7081 400.056 67.9721 398.642 67.9721C395.813 67.9721 394.133 66.1236 394.133 63.3948C394.133 60.6661 395.724 58.4655 398.377 58.4655C401.029 58.4655 402.178 61.1062 402.178 62.7787C402.178 64.4511 402.178 63.3948 402.178 63.5709H395.813H395.724ZM400.587 62.4266C400.587 61.3703 400.145 59.7858 398.288 59.7858C396.432 59.7858 395.901 61.2822 395.724 62.4266H400.587Z" fill="#2e3826"></path><path d="M409.163 67.7962V66.6519H408.987C408.456 67.3561 407.484 67.9722 406.157 67.9722C404.301 67.9722 403.328 66.6519 403.328 65.3315C403.328 63.1309 405.273 61.8985 408.81 61.9866V61.8105C408.81 61.0183 408.633 59.6979 406.776 59.6979C404.92 59.6979 405.008 59.962 404.389 60.4021L404.035 59.3458C404.831 58.8177 405.892 58.5536 407.041 58.5536C409.871 58.5536 410.49 60.4021 410.49 62.2506V65.6836C410.49 66.4758 410.49 67.268 410.666 67.8842H409.163V67.7962ZM408.898 63.2189C407.13 63.2189 405.008 63.483 405.008 65.2435C405.008 67.004 405.715 66.8279 406.599 66.8279C407.484 66.8279 408.544 66.0357 408.81 65.3315C408.81 65.1554 408.898 64.9794 408.898 64.8034V63.2189Z" fill="#2e3826"></path><path d="M413.053 61.5463C413.053 60.49 413.053 59.5217 413.053 58.7295H414.467V60.49H414.556C414.998 59.2577 415.97 58.4655 417.12 58.4655C418.269 58.4655 417.473 58.4655 417.562 58.4655V60.0499C417.385 60.0499 417.208 60.0499 417.031 60.0499C415.882 60.0499 414.998 60.9301 414.821 62.1625C414.821 62.4266 414.821 62.6906 414.821 62.9547V67.7961H413.141V61.5463H413.053Z" fill="#2e3826"></path><path d="M418.977 66.1237C419.507 66.4758 420.303 66.7399 421.187 66.7399C422.425 66.7399 422.955 66.1237 422.955 65.4195C422.955 64.7153 422.513 64.1872 421.275 63.7471C419.596 63.1309 418.888 62.2506 418.888 61.1943C418.888 60.138 420.038 58.5536 422.071 58.5536C424.105 58.5536 423.839 58.8177 424.281 59.0817L423.839 60.3141C423.486 60.05 422.867 59.7859 421.983 59.7859C421.099 59.7859 420.48 60.3141 420.48 61.0183C420.48 61.7225 421.01 62.0746 422.248 62.5147C423.839 63.1309 424.635 63.9231 424.635 65.2435C424.635 66.5638 423.397 67.9722 421.187 67.9722C418.977 67.9722 419.242 67.7082 418.623 67.3561L419.065 66.1237H418.977Z" fill="#2e3826"></path></svg>